# xmcd
#
# Track frame offsets: 
#        150
#        16030
#        32151
#
# Disc length: 647 seconds
#
# Revision: 1
# Processed by: cddbd v1.5.2PL0 Copyright (c) Steve Scherf et al.
# Submitted via: ExactAudioCopy v0.95b4
#
DISCID=16028503
DTITLE=Papa Roach - Live EP (iTunes Exclusive)
DYEAR=2007
DGENRE=Rock
TTITLE0=Reckless
TTITLE1=Scars
TTITLE2=Forever (Acoustic)
EXTD=
EXTT0=
EXTT1=
EXTT2=
PLAYORDER=
